<?xml version="1.0" ?>
<!-- Uploaded to: SVG Repo, www.svgrepo.com, Generator: SVG Repo Mixer Tools -->
<svg fill="#000000" width="800px" height="800px" viewBox="0 0 32 32" xmlns="http://www.w3.org/2000/svg">
<title/>
<g data-name="Layer 79" id="Layer_79">
<path d="M25,30H7a5,5,0,0,1-5-5V12a1,1,0,0,1,.43-.82,1,1,0,0,1,.93-.11L16,15.93l12.64-4.86a1,1,0,0,1,.93.11A1,1,0,0,1,30,12V25A5,5,0,0,1,25,30ZM4,13.46V25a3,3,0,0,0,3,3H25a3,3,0,0,0,3-3V13.46L16.36,17.93a1,1,0,0,1-.72,0Z"/>
<path d="M16,18a.92.92,0,0,1-.36-.07l-9-3.46A1,1,0,0,1,6,13.54V10a5,5,0,0,1,5-5H21a5,5,0,0,1,5,5v3.54a1,1,0,0,1-.64.93l-9,3.46A.92.92,0,0,1,16,18ZM8,12.85l8,3.08,8-3.08V10a3,3,0,0,0-3-3H11a3,3,0,0,0-3,3Zm17,.69h0Z"/>
<path d="M6.64,14.47l-4-1.54A1,1,0,0,1,2,12.12a1,1,0,0,1,.42-.94L6.52,8.35a1,1,0,0,1,1-.06c.33.18.25.5.24.88l-.09,4.37c0,.32.08.6-.15.83A.94.94,0,0,1,6.64,14.47Z"/>
<path d="M20.9,5.18l-4.33-3a1,1,0,0,0-1.14,0l-4.33,3A1,1,0,0,0,11.67,7h8.66a1,1,0,0,0,.57-1.82Z"/>
<path d="M24.44,14.37c-.23-.23,0-.5,0-.83l-.09-4.37c0-.37-.24-.7.09-.88a1,1,0,0,1,1,.06l4.09,2.83a1,1,0,0,1,.42.94,1,1,0,0,1-.63.81l-4,1.54A.92.92,0,0,1,24.44,14.37Z"/>
<path d="M16,12a1,1,0,0,1-1-1V9a1,1,0,0,1,2,0v2A1,1,0,0,1,16,12Z"/>
<path d="M16,15a1,1,0,1,1,0-2h0a1,1,0,0,1,0,2Z"/>
<path d="M16,25.69c-7.75,0-12-6.36-12-8.44l-.71,7.93A3.61,3.61,0,0,0,7,29H25a3.53,3.53,0,0,0,3.61-3.82L28,22C28,24.5,23.75,25.69,16,25.69Z"/>
</g>
</svg>